<?xml version="1.0" encoding="UTF-8" standalone="no"?>
<svg
        xmlns="http://www.w3.org/2000/svg"
        version="1.1"
        width="512"
        viewBox="0 0 511.996 511.996"
        height="512"
        enable-background="new 0 0 511.996 511.996"
        id="Layer_1">
  <metadata
     id="metadata21">
  </metadata>
  <defs
     id="defs19" />
  <g
     id="g14">
    <g
       id="g12">
      <path
         style="fill:#000000;fill-opacity:1"
         id="path2"
         d="m466.195 126.009c-1.326-2.297-3.51-3.973-6.072-4.659l-75.01-20.098c1.015-2.931 1.764-5.974 2.24-9.093 11.321-3.538 20.764-11.078 26.73-21.413 6.299-10.909 7.972-23.618 4.711-35.786-6.73-25.119-32.645-40.078-57.76-33.349-16.148 4.327-28.085 16.586-32.772 31.46-1.891.288-3.77.661-5.618 1.157-13.385 3.586-24.571 12.17-31.5 24.17-2.924 5.065-4.931 10.485-6.017 16.062l-138.482-37.106c-2.564-.688-5.292-.327-7.588.999-2.297 1.326-3.973 3.51-4.659 6.072l-89.597 334.378c-.687 2.562-.327 5.291.999 7.588s3.51 3.973 6.072 4.659l64.478 17.277v93.669c0 5.522 4.477 10 10 10h324.537c5.523 0 10-4.478 10-10v-344.858l6.308-23.541c.686-2.561.327-5.291-1-7.588zm-99.984-105.079c14.469-3.87 29.39 4.74 33.265 19.206 1.877 7.008.914 14.328-2.713 20.61-3.627 6.283-9.485 10.777-16.493 12.655-7.008 1.876-14.328.914-20.61-2.713-6.283-3.628-10.777-9.484-12.655-16.492-3.876-14.466 4.739-29.389 19.206-33.266zm-57.747 47.469c4.04-6.998 10.438-12.098 18.11-14.485.264 1.819.625 3.641 1.112 5.458 3.26 12.168 11.064 22.338 21.974 28.637 5.272 3.044 10.967 4.992 16.816 5.841-3.206 10.199-11.426 18.402-22.156 21.277-16.977 4.547-34.491-5.563-39.041-22.54-2.203-8.224-1.072-16.814 3.185-24.188zm-157.336-9.139 134.22 35.965c.183.848.387 1.694.613 2.538 1.52 5.674 3.935 10.874 7.044 15.495l-10.48 10.48c-3.905 3.905-3.905 10.237 0 14.143 1.953 1.952 4.512 2.929 7.071 2.929s5.119-.977 7.071-2.929l10.503-10.503c8.431 5.653 18.472 8.841 28.912 8.841 4.431 0 8.935-.573 13.414-1.773 9.897-2.652 18.494-8.088 25.035-15.324l70.756 18.958-67.62 252.363-53.036-14.211c-5.335-1.431-10.819 1.736-12.248 7.071l-14.211 53.036-231.464-62.019zm207.704 346.842-37.68 21.754 7.963-29.717zm82.055 85.894h-304.537v-78.31l166.305 44.561c.852.229 1.722.341 2.588.341 1.741 0 3.467-.454 5-1.34l79.495-45.896c2.297-1.326 3.973-3.51 4.659-6.072l46.489-173.501v260.217z" />
      <path
         id="path4"
         d="m168.228 188.637 197.563 52.938c.867.232 1.738.344 2.595.344 4.415 0 8.456-2.947 9.653-7.415 1.43-5.334-1.736-10.817-7.071-12.247l-197.563-52.938c-5.337-1.431-10.818 1.736-12.248 7.071-1.43 5.334 1.736 10.818 7.071 12.247z" />
      <path
         id="path6"
         d="m157.828 227.449 197.563 52.938c.867.232 1.738.344 2.595.344 4.415 0 8.456-2.947 9.653-7.415 1.43-5.334-1.736-10.817-7.071-12.247l-197.563-52.938c-5.334-1.431-10.819 1.736-12.248 7.071-1.429 5.334 1.737 10.817 7.071 12.247z" />
      <path
         id="path8"
         d="m207.909 261.76-55.304-14.818c-5.335-1.431-10.819 1.736-12.248 7.071-1.43 5.334 1.736 10.817 7.071 12.247l55.304 14.818c.867.232 1.738.344 2.595.344 4.415 0 8.456-2.947 9.653-7.415 1.43-5.334-1.736-10.817-7.071-12.247z" />
      <path
         id="path10"
         d="m248.799 273.07h-.007c-5.523 0-9.996 4.478-9.996 10s4.48 10 10.003 10 10-4.478 10-10-4.477-10-10-10z" />
      <path
         transform="scale(0.99999219)"
         id="path850"
         d="M 182.59277,405.06948 C 119.31759,388.11209 67.461268,374.17416 67.356498,374.09631 67.154645,373.94632 151.10655,60.285969 151.4399,59.944677 c 0.27055,-0.277004 131.79107,34.920754 132.936,35.576573 0.50892,0.291508 1.17807,1.70519 1.48699,3.141516 0.30893,1.436324 1.87956,5.293704 3.49028,8.571954 l 2.92859,5.96046 -6.06836,6.23947 c -4.73735,4.87094 -6.16224,6.7399 -6.49638,8.521 -1.02703,5.47453 1.0864,10.11667 5.52316,12.1316 5.39663,2.45085 8.62152,1.18842 16.20213,-6.3426 l 5.65435,-5.61738 5.14083,2.51418 c 8.17591,3.99853 12.70681,5.16294 21.49074,5.52294 14.74676,0.60439 26.30175,-3.47209 37.45438,-13.21351 l 3.83803,-3.35238 34.67923,9.30436 c 19.07358,5.1174 34.77271,9.39783 34.88695,9.51207 0.24056,0.24056 -66.84548,250.81562 -67.26194,251.23208 -0.15256,0.15256 -12.23554,-2.92935 -26.85108,-6.84867 -14.61554,-3.91933 -27.60033,-7.12605 -28.8551,-7.12605 -2.99934,0 -7.11101,2.45418 -8.45056,5.04397 -0.5832,1.1275 -4.23216,13.94889 -8.10882,28.49197 -3.87666,14.54309 -7.13224,26.49843 -7.23463,26.56743 -0.10237,0.069 -51.95674,-13.74878 -115.23192,-30.70618 z m 68.78072,-112.11835 c 1.35711,-0.36899 3.26503,-1.4084 4.23983,-2.30981 8.71209,-8.05612 -0.81875,-22.05333 -11.32882,-16.63778 -3.7723,1.94376 -5.55679,4.76233 -5.55679,8.77682 0,6.12243 3.05843,9.46348 9.86988,10.78197 0.16964,0.0328 1.4188,-0.2422 2.7759,-0.6112 z M 210.59261,280.1806 c 6.52464,-3.82183 6.52641,-13.7076 0.003,-17.51121 -0.98237,-0.57281 -14.92444,-4.55521 -30.98239,-8.84978 -31.16795,-8.33562 -31.3224,-8.3604 -35.31831,-5.66755 -5.51672,3.71771 -5.95729,12.37487 -0.83483,16.40419 2.02262,1.591 -0.54142,0.82014 32.347,9.72489 29.64677,8.02705 30.81494,8.22517 34.78538,5.89946 z m 150.70321,0.19024 c 2.5405,-0.5105 6.15942,-4.49175 6.69942,-7.37018 0.82166,-4.37982 -1.2179,-9.36029 -4.53577,-11.07602 -1.33351,-0.68959 -192.01483,-52.08935 -201.40066,-54.28925 -2.59532,-0.60831 -6.60227,0.7365 -8.82893,2.96316 -4.05486,4.05486 -4.07612,9.95181 -0.0517,14.33872 1.96273,2.13952 2.02611,2.15757 98.50375,28.03872 107.60815,28.86703 105.4345,28.29667 106.71807,28.00272 0.50892,-0.11655 1.81203,-0.39009 2.89582,-0.60787 z m 9.74996,-38.61971 c 4.39418,-1.19476 7.71085,-5.45426 7.71085,-9.90282 0,-2.83476 -2.11417,-6.77937 -4.46314,-8.32728 -1.31757,-0.86824 -35.92925,-10.4027 -100.0959,-27.57336 -53.94506,-14.43542 -99.3534,-26.52858 -100.90742,-26.8737 -9.2409,-2.05222 -15.98188,7.52922 -11.03009,15.67784 0.61852,1.01783 1.90713,2.30709 2.86358,2.86503 0.95644,0.55794 45.32068,12.69146 98.58718,26.96338 53.26651,14.27192 98.37494,26.35813 100.24097,26.85823 4.21505,1.12965 4.10685,1.12488 7.09397,0.31268 z"
         style="fill:#ffaaaa;fill-opacity:1;stroke-width:0.616867" />
      <path
         transform="scale(0.99999219)"
         id="path852"
         d="m 322.00482,426.5284 c 0,-0.54148 5.94565,-23.08322 6.84903,-25.96674 l 0.60915,-1.94436 9.07091,2.40229 c 4.989,1.32126 11.38206,3.0351 14.2068,3.80852 l 5.13589,1.40623 -15.93107,9.19745 c -8.76209,5.0586 -16.83324,9.72955 -17.93589,10.37991 -1.10265,0.65035 -2.00482,0.97286 -2.00482,0.7167 z"
         style="fill:#ffaaaa;fill-opacity:1;stroke-width:0.616867" />
      <path
         transform="scale(0.99999219)"
         id="path854"
         d="m 136.94458,453.08916 c 0,-25.76903 0.20843,-38.55422 0.62854,-38.55422 0.3457,0 38.02355,10.02117 83.72857,22.26927 61.95844,16.60371 83.67171,22.19259 85.34714,21.96786 1.47037,-0.19722 15.65393,-8.03504 41.03288,-22.67474 46.13066,-26.6102 44.78323,-25.77807 46.02958,-28.42659 0.53844,-1.14421 11.25726,-40.38785 23.8196,-87.20809 l 22.84061,-85.12771 0.036,128.15422 0.0359,128.15421 H 288.69398 136.94458 Z"
         style="fill:#ffeeaa;fill-opacity:1;stroke-width:0.616867" />
      <path
         transform="scale(0.99999219)"
         id="path856"
         d="m 137.12164,453.63537 c 0.20652,-20.90441 0.52437,-38.15688 0.70632,-38.33883 0.38657,-0.38658 -0.47991,-0.61228 79.92626,20.81939 75.61461,20.15452 87.46629,23.15521 89.46251,22.65071 1.94189,-0.49076 19.36033,-10.18174 48.40737,-26.9321 30.51211,-17.59522 34.10713,-19.76143 36.38828,-21.92611 2.41165,-2.28851 0.35768,4.99771 38.51751,-136.63614 l 9.2241,-34.23615 0.0365,42.56386 c 0.0201,23.41012 0.22112,80.24675 0.44675,126.30361 l 0.41024,83.73976 H 288.69683 136.74616 l 0.37549,-38.008 z"
         style="fill:#ffeeaa;fill-opacity:1;stroke-width:0.616867" />
      <path
         transform="scale(0.99999219)"
         id="path858"
         d="m 322.62169,425.65374 c 0,-0.91725 6.70749,-26.05119 7.04138,-26.38509 0.13236,-0.13235 6.23558,1.36511 13.56273,3.3277 10.2625,2.74882 13.14516,3.73297 12.55175,4.28518 -0.42367,0.39427 -7.43249,4.54153 -15.57514,9.21613 -8.14265,4.6746 -15.4294,8.90436 -16.19277,9.39946 -0.99635,0.64621 -1.38795,0.6904 -1.38795,0.15662 z"
         style="fill:#ffeeaa;fill-opacity:1;stroke-width:0.616867" />
      <path
         transform="scale(0.99999219)"
         id="path860"
         d="M 244.58795,421.36145 C 104.00092,383.71897 68.743448,374.21398 68.307675,373.83844 67.74413,373.35278 79.471617,329.00866 127.69511,149.28193 c 22.63813,-84.37129 23.5952,-87.886693 24.07265,-88.421559 0.45582,-0.510632 35.66718,8.652754 98.30767,25.583536 17.60703,4.758915 32.6144,8.881306 33.34971,9.160868 0.86554,0.32908 1.61394,1.453509 2.12261,3.18911 0.43213,1.474445 2.00752,5.278785 3.50086,8.454075 l 2.71516,5.77327 -5.0122,5.33035 c -6.58333,7.0012 -7.30546,8.23508 -7.3083,12.48732 -0.004,5.67967 3.59322,9.74074 9.09598,10.26948 4.11014,0.39494 6.76402,-1.05613 13.37274,-7.31184 l 5.31909,-5.03496 6.43146,2.83288 c 8.93875,3.93729 14.47136,4.95691 24.94242,4.59673 7.36034,-0.25319 9.09381,-0.52934 14.20979,-2.26367 6.62001,-2.24419 11.1698,-4.83244 17.6292,-10.02877 2.46785,-1.98528 4.84524,-3.60959 5.2831,-3.60959 1.30915,0 67.45317,17.93063 67.9535,18.42116 0.49615,0.48642 -0.8476,5.64138 -26.15209,100.32582 -27.94113,104.55022 -40.0514,149.25822 -40.57257,149.78341 -0.2737,0.27581 -8.93279,-1.72044 -19.24243,-4.43612 -10.30963,-2.71569 -22.21466,-5.81188 -26.45563,-6.88043 -9.35918,-2.35814 -12.53463,-2.26846 -15.89192,0.44882 -2.72611,2.20642 -2.85702,2.6006 -11.58595,34.88673 -3.37098,12.46844 -6.27063,22.64565 -6.44366,22.61602 -0.17304,-0.0296 -23.90979,-6.37153 -52.74835,-14.09312 z m 8.69717,-128.90793 c 3.91564,-1.77827 5.49078,-4.4632 5.49078,-9.35937 0,-3.49427 -0.23996,-4.37226 -1.72827,-6.32354 -2.16646,-2.84038 -4.58969,-4.11519 -7.82235,-4.11519 -3.47368,0 -6.13987,1.24846 -8.56512,4.01066 -1.99379,2.27081 -2.05084,2.48388 -1.83095,6.8384 0.18951,3.75289 0.47979,4.7652 1.75912,6.13468 3.60866,3.86297 8.1643,4.87276 12.69679,2.81436 z m -41.98868,-12.49557 c 5.19504,-3.55969 5.96858,-11.39803 1.55991,-15.80669 -2.02981,-2.02983 -5.78956,-3.21836 -35.31553,-11.16398 -20.79994,-5.59739 -28.10151,-7.18523 -30.39446,-6.60973 -2.68554,0.67402 -6.25954,4.39927 -7.09974,7.40019 -1.26903,4.53254 0.72239,9.93346 4.35537,11.81214 2.65821,1.37462 53.18909,15.0264 58.85584,15.90092 3.0637,0.4728 5.9012,-0.0683 8.03861,-1.53285 z m 152.05799,-0.31819 c 5.5655,-3.28763 6.61702,-12.0237 1.97107,-16.37588 -1.99619,-1.86997 -1.37082,-1.68779 -62.75201,-18.27994 -111.49285,-30.13798 -140.09809,-37.71647 -142.3619,-37.71647 -5.28582,0 -10.31279,5.18675 -10.31279,10.64058 0,2.7253 2.29841,7.13315 4.22702,8.10649 2.59539,1.30985 10.51947,3.76807 24.14888,7.4915 23.16617,6.32879 145.03996,38.99632 161.00241,43.15573 8.65156,2.25437 16.00771,4.21091 16.34699,4.34786 1.22939,0.49626 6.00334,-0.34972 7.73033,-1.36987 z m 9.65133,-38.49753 c 3.5333,-1.71043 5.29239,-4.29671 5.62146,-8.26479 0.29961,-3.6129 -1.33719,-7.65519 -3.73395,-9.22149 -2.29557,-1.50016 -36.29083,-10.84546 -142.33423,-39.12768 -64.32931,-17.15689 -60.8732,-16.29661 -63.50848,-15.80836 -6.64371,1.23091 -10.47855,8.42258 -7.81922,14.66376 1.97154,4.627 -3.06359,3.0428 85.51565,26.90586 25.27614,6.80934 62.33446,16.79865 82.35181,22.19847 20.01734,5.39982 37.48729,9.84554 38.82211,9.87938 1.3348,0.0339 3.62299,-0.51747 5.08485,-1.22515 z"
         style="fill:#ffeeaa;fill-opacity:1;stroke-width:0.616867" />
      <path
         transform="scale(0.99999219)"
         id="path862"
         d="m 366.48382,73.047893 c -7.63867,-2.054154 -13.99617,-7.461668 -17.521,-14.902874 -1.84955,-3.90456 -1.97487,-4.599699 -1.97487,-10.954658 0,-6.347706 0.12677,-7.053152 1.96471,-10.932945 7.99274,-16.872256 28.88681,-21.116665 42.31263,-8.595361 3.46495,3.231511 5.66708,6.429529 7.01783,10.191557 3.67619,10.238719 1.20465,20.991488 -6.51807,28.357714 -7.14467,6.814861 -16.22788,9.271149 -25.28123,6.836567 z"
         style="fill:#ff6600;fill-opacity:1;stroke-width:0.616867" />
      <path
         transform="scale(0.99999219)"
         id="path864"
         d="m 330.33253,115.34398 c -11.67643,-2.32787 -21.19826,-11.13631 -24.61586,-22.771605 -1.11296,-3.789095 -1.26823,-11.324279 -0.31829,-15.446789 1.92171,-8.339778 8.83568,-17.045763 16.60644,-20.910631 l 4.00964,-1.994235 0.51833,2.036628 c 2.7218,10.694388 6.70648,18.012911 13.36786,24.552291 6.68655,6.564081 14.12547,10.706974 22.35477,12.449846 1.95085,0.413167 3.54699,0.981179 3.54699,1.262249 0,1.811108 -4.42353,8.714826 -7.65373,11.945026 -7.36451,7.36451 -18.14562,10.80519 -27.81615,8.87722 z"
         style="fill:#ff6600;fill-opacity:1;stroke-width:0.616867" />
    </g>
  </g>
</svg>
