<svg id="Capa_1" enable-background="new 0 0 512 512" height="512" viewBox="0 0 512 512" width="512" xmlns="http://www.w3.org/2000/svg"><g><path d="m263.427 372.671c-3.927-1.315-8.178.801-9.493 4.73-3.022 9.023-4.555 17.297-4.555 24.591 0 27.276 23.868 48.726 51.48 45.285 38.355-4.779 53.442-52.52 25.294-81.49-.553-.569-1.139-1.164-1.752-1.786-8.209-8.326-20.613-20.908-21.785-43.044-.207-3.861-2.86-7.107-6.603-8.077-3.739-.972-7.63.578-9.685 3.851-4.283 6.829-10.821 16.737-17.157 27.892-2.046 3.602-.784 8.18 2.817 10.226 3.604 2.045 8.18.784 10.226-2.817 2.742-4.828 5.546-9.448 8.187-13.684 5.163 17.768 16.131 28.894 23.318 36.184.586.595 1.146 1.164 1.676 1.708 19.573 20.144 9.549 52.919-16.392 56.152-18.994 2.368-34.625-12.435-34.625-30.4 0-5.672 1.271-12.343 3.777-19.828 1.317-3.927-.801-8.178-4.728-9.493z"/><path d="m392.316 23.228c-.614-13.025-11.529-23.228-24.848-23.228h-304.713c-13.453 0-24.399 10.945-24.399 24.399 0 13.453 10.945 24.398 24.398 24.398h14.092c4.143 0 7.5-3.358 7.5-7.5s-3.357-7.5-7.5-7.5h-14.091c-5.183 0-9.398-4.216-9.398-9.398 0-5.183 4.216-9.399 9.398-9.399h304.713c5.208 0 9.634 4.008 9.865 8.934.123 2.605-.795 5.074-2.585 6.951-1.792 1.878-4.208 2.913-6.803 2.913-4.143 0-7.5 3.358-7.5 7.5s3.357 7.5 7.5 7.5h48.339c3.58 0 6.912 1.427 9.385 4.019 2.47 2.589 3.737 5.994 3.567 9.587-.319 6.799-6.389 12.331-13.53 12.331h-22.771c-4.143 0-7.5 3.358-7.5 7.5s3.357 7.5 7.5 7.5c2.763 0 5.335 1.102 7.243 3.102 1.906 1.998 2.884 4.626 2.754 7.4-.247 5.246-4.954 9.514-10.491 9.514h-20.003c-8.287 0-15.029 6.742-15.029 15.03v144.533c-2.602.09-5.017 1.319-6.642 3.422-1.033 1.337-2.092 2.658-3.172 3.961 3.568-17.998.947-37.139-7.952-53.898-.76-1.431-1.521-2.859-2.283-4.284v-105.293c0-12.951 10.536-23.488 23.487-23.488 4.143 0 7.5-3.358 7.5-7.5s-3.357-7.5-7.5-7.5h-49.637c-3.531 0-6.832-1.394-9.296-3.926-2.462-2.53-3.765-5.873-3.668-9.412.19-6.947 6.197-12.599 13.39-12.599 4.143 0 7.5-3.358 7.5-7.5s-3.357-7.5-7.5-7.5h-78.742c-4.143 0-7.5 3.358-7.5 7.5s3.357 7.5 7.5 7.5c7.394 0 13.304 6.155 12.952 13.605-.319 6.799-6.389 12.331-13.53 12.331h-3.419c-4.143 0-7.5 3.358-7.5 7.5s3.357 7.5 7.5 7.5c12.951 0 23.487 10.537 23.487 23.488v104.847c-9.022 16.891-18.663 35.624-27.58 54.314v-147.602c0-8.288-6.742-15.03-15.029-15.03h-20.648c-5.538 0-10.245-4.268-10.492-9.515-.13-2.774.848-5.402 2.754-7.4 1.908-2 4.48-3.102 7.243-3.102 4.143 0 7.5-3.358 7.5-7.5s-3.357-7.5-7.5-7.5h-42.752c-3.531 0-6.833-1.395-9.296-3.926-2.462-2.53-3.764-5.873-3.667-9.412.19-6.947 6.196-12.599 13.389-12.599 4.143 0 7.5-3.358 7.5-7.5s-3.357-7.5-7.5-7.5h-34.459c-4.143 0-7.5 3.358-7.5 7.5s3.357 7.5 7.5 7.5h9.346c-1.979 3.668-3.149 7.808-3.27 12.188-.209 7.622 2.6 14.825 7.91 20.283 5.312 5.459 12.431 8.466 20.047 8.466h19.813c-1.519 3.474-2.228 7.284-2.042 11.207.628 13.351 11.818 23.809 25.475 23.809l20.678.03v185.441c-.867 5.587-.884 11.218-.082 16.718-4.247-1.219-8.759 1.067-10.238 5.307-6.308 18.147-9.373 32.013-9.373 42.39 0 38.601 20.537 72.448 51.155 90.978h-116.537c-5.69 0-10.32 4.63-10.32 10.321v1.497c0 19.061 15.507 34.568 34.568 34.568h290.099c19.062 0 34.568-15.507 34.568-34.568v-1.497c0-5.691-4.63-10.321-10.32-10.321h-114.279c30.48-18.378 50.906-51.808 50.906-89.92 0-2.306-.156-4.829-.466-7.499-.477-4.115-4.199-7.069-8.312-6.588-4.114.476-7.064 4.198-6.588 8.312.243 2.1.366 4.042.366 5.774 0 49.583-40.338 89.92-89.921 89.92-49.582 0-89.92-40.812-89.92-90.978 0-6.874 1.856-16.366 5.526-28.29l15.463 12.975c3.136 2.623 7.747 2.31 10.499-.714 2.751-3.023 2.63-7.644-.247-10.49-12.255-12.255-15.57-30.412-8.606-46.223 21.804-49.511 53.266-105.403 66.986-129.167 10.232 17.679 21.799 38.529 31.664 57.107 10.876 20.479 10.269 45.287-1.598 64.761l-.307.502c-2.4 3.901-1.627 8.911 1.838 11.912 3.459 2.995 8.517 3.042 12.028.114 6.203-5.176 12.218-10.984 17.936-17.509 6.845 14.787 14.055 31.463 19.511 46.879 1.381 3.905 5.667 5.947 9.572 4.568 3.905-1.382 5.95-5.668 4.568-9.573-4.385-12.39-10.266-26.712-17.535-42.714l.029-164.024h20.003c13.656 0 24.846-10.458 25.475-23.809.185-3.924-.524-7.733-2.043-11.208 15.211-.085 27.647-11.75 28.347-26.625.364-7.729-2.369-15.061-7.697-20.646-5.331-5.587-12.518-8.665-20.238-8.665h-25.804c1.374-3.288 2.01-6.876 1.836-10.567zm66.069 457.386c-1.524 9.282-9.603 16.386-19.31 16.386h-290.098c-9.707 0-17.785-7.104-19.31-16.386zm-163.66-327.328c-3.715 0-7.194 1.994-9.071 5.206-3.599 6.156-10.182 17.542-18.27 32.076v-77.346c0-12.667-6.151-23.925-15.623-30.942 5.29-4.808 8.712-11.571 9.068-19.171.239-5.068-.854-9.964-3.137-14.311h28.829c-1.979 3.668-3.149 7.809-3.27 12.188-.209 7.622 2.602 14.826 7.911 20.283 5.312 5.459 12.432 8.465 20.047 8.465h19.167c-5.024 6.503-8.017 14.652-8.017 23.488v77.822c-7.2-12.934-13.745-24.351-18.576-32.572-1.878-3.2-5.348-5.186-9.058-5.186z"/></g></svg>